<?xml version="1.0" encoding="UTF-8" standalone="no"?>
<!-- Created with Inkscape (http://www.inkscape.org/) -->

<svg
   width="193.34798mm"
   height="34.979118mm"
   viewBox="0 0 193.34798 34.979118"
   version="1.1"
   id="svg1"
   inkscape:export-filename="contrast-text.svg"
   inkscape:export-xdpi="96"
   inkscape:export-ydpi="96"
   sodipodi:docname="contrast-text.svg"
   xmlns:inkscape="http://www.inkscape.org/namespaces/inkscape"
   xmlns:sodipodi="http://sodipodi.sourceforge.net/DTD/sodipodi-0.dtd"
   xmlns="http://www.w3.org/2000/svg"
   xmlns:svg="http://www.w3.org/2000/svg">
  <sodipodi:namedview
     id="namedview1"
     pagecolor="#ffffff"
     bordercolor="#000000"
     borderopacity="0.25"
     inkscape:showpageshadow="2"
     inkscape:pageopacity="0.0"
     inkscape:pagecheckerboard="0"
     inkscape:deskcolor="#d1d1d1"
     inkscape:document-units="mm"
     showgrid="false" />
  <defs
     id="defs1" />
  <g
     inkscape:label="Layer 1"
     inkscape:groupmode="layer"
     id="layer1"
     transform="translate(0.06978028)">
    <path
       d="m 10.084233,34.924998 q -3.7522729,0 -6.1876422,-1.858097 Q 1.4612215,31.208805 0.48707379,27.979685 -0.46903415,24.732526 0.2164772,20.619458 0.90198856,16.434231 2.9765624,13.205112 5.0511362,9.9579526 8.0998578,8.1178958 11.166619,6.2597992 14.792613,6.2597992 q 4.167188,0 6.692756,2.38125 2.543608,2.3632098 2.471449,6.2237218 h -3.247159 q -0.126279,-2.39929 -1.731818,-4.040909 -1.60554,-1.6416197 -4.564063,-1.6416197 -2.687926,0 -4.9789771,1.4431817 -2.2910511,1.425142 -3.878551,3.98679 -1.5694603,2.543608 -2.1106534,5.899005 -0.5772727,3.373438 0.1082386,5.971165 0.6855114,2.579688 2.4534091,4.040909 1.7859374,1.461222 4.5099428,1.461222 2.778125,0 5.051137,-1.533381 2.273011,-1.55142 3.283238,-4.185227 h 3.247159 q -0.81179,2.507528 -2.561647,4.473863 -1.731819,1.948296 -4.149148,3.066762 -2.41733,1.118466 -5.303693,1.118466 z m 28.412649,0 q -3.644034,0 -6.133522,-1.840057 -2.489489,-1.858097 -3.535796,-5.141335 -1.028267,-3.283239 -0.324715,-7.576705 0.685511,-4.185227 2.724005,-7.360227 2.056534,-3.1749999 5.051136,-4.9609373 2.994603,-1.7859375 6.512358,-1.7859375 3.662074,0 6.133523,1.8580966 2.489489,1.8580965 3.517756,5.1413352 1.046306,3.283239 0.360795,7.594744 -0.685511,4.149148 -2.742045,7.324148 -2.056534,3.175 -5.051137,4.960937 -2.976562,1.785938 -6.512358,1.785938 z m 0.03608,-2.940483 q 2.940483,0 5.267614,-1.56946 2.32713,-1.5875 3.842471,-4.221307 1.515341,-2.651847 2.038494,-5.826847 0.487074,-3.048721 -0.108238,-5.574289 -0.595313,-2.543608 -2.291051,-4.076989 -1.695739,-1.5333807 -4.509943,-1.5333807 -2.940483,0 -5.267614,1.6055397 -2.327131,1.5875 -3.842472,4.239347 -1.51534,2.651846 -2.020454,5.826846 -0.505114,3.030682 0.07216,5.57429 0.595312,2.525568 2.291051,4.040909 1.713778,1.515341 4.527982,1.515341 z M 63.698488,17.029543 60.830164,34.347725 H 57.619085 L 62.237266,6.6386344 h 3.120881 L 64.636556,10.98622 h 0.288636 Q 66.224056,8.8575264 68.515107,7.5767026 70.824198,6.277839 73.87292,6.277839 q 4.167187,0 6.349999,2.5977272 2.182813,2.5977268 1.371023,7.5225848 L 78.5813,34.347725 h -3.211079 l 2.958522,-17.751136 q 0.559233,-3.391477 -0.974147,-5.375852 -1.533381,-2.0024151 -4.7625,-2.0024151 -3.265199,0 -5.772727,2.0926131 -2.489489,2.092614 -3.120881,5.718608 z m 38.893782,-10.3909086 -0.451,2.7961648 H 96.242266 L 93.301783,27.113776 q -0.432955,2.615767 0.685511,3.571875 1.136506,0.938068 2.778125,0.938068 0.631392,0 1.082387,-0.0902 0.469034,-0.0902 0.829829,-0.162358 l 0.234517,2.904404 q -0.523153,0.180398 -1.244744,0.324716 -0.721591,0.162358 -1.731818,0.162358 -1.767898,0 -3.265199,-0.775711 -1.497301,-0.77571 -2.273011,-2.30909 -0.775711,-1.533381 -0.414915,-3.806392 L 93.031186,9.4347992 h -4.131108 l 0.469035,-2.7961648 h 4.113068 L 94.582607,-1.8423254e-6 h 3.229119 L 96.7113,6.6386344 Z m 2.66984,27.7090906 4.61818,-27.7090906 h 3.12088 l -0.72159,4.2573866 h 0.23452 q 1.17258,-2.0926139 3.46363,-3.3734377 2.29105,-1.2988636 4.90682,-1.2988636 0.41492,0 0.88395,0.01804 0.48707,0 0.81179,0.03608 l -0.55923,3.2651988 q -0.21648,-0.03608 -0.75767,-0.1082386 -0.52316,-0.072159 -1.17259,-0.072159 -2.16477,0 -4.00483,0.9200281 -1.84005,0.901989 -3.06676,2.507529 -1.2267,1.60554 -1.5875,3.662074 l -2.95852,17.895454 z m 25.83294,0.631392 q -2.50753,0 -4.41974,-0.974148 -1.91222,-0.992187 -2.85029,-2.850284 -0.92003,-1.876136 -0.50511,-4.546022 0.46903,-2.742046 2.09261,-4.347586 1.64162,-1.623579 4.18523,-2.453409 2.54361,-0.829829 5.73665,-1.208664 3.53579,-0.432955 5.46605,-0.79375 1.94829,-0.360796 2.21889,-1.912216 l 0.10824,-0.649432 q 0.46903,-2.832244 -0.86591,-4.455824 -1.33494,-1.6416192 -4.47386,-1.6416192 -2.99461,0 -5.19546,1.3349432 -2.18281,1.316903 -3.24716,3.084801 l -2.85028,-1.100426 q 1.29886,-2.273011 3.19304,-3.6259943 1.89417,-1.3710227 4.05895,-1.9663352 2.16477,-0.6133523 4.27542,-0.6133523 1.5875,0 3.22912,0.4149148 1.65966,0.4149147 2.95853,1.4431818 1.3169,1.0102272 1.93025,2.8142042 0.63139,1.803978 0.16236,4.600142 l -3.13892,18.815483 h -3.21108 l 0.73963,-4.383665 h -0.19844 q -1.15454,1.840057 -3.55383,3.427557 -2.38125,1.5875 -5.84489,1.5875 z m 0.81179,-2.940483 q 2.56165,0 4.63622,-1.118466 2.09262,-1.136506 3.4456,-3.030682 1.35298,-1.894176 1.71378,-4.167187 l 0.66747,-4.00483 q -0.54119,0.450995 -1.89418,0.79375 -1.35298,0.324716 -2.9044,0.541194 -1.53338,0.216477 -2.66989,0.360795 -3.58991,0.432955 -5.77272,1.62358 -2.16478,1.190625 -2.57969,3.716193 -0.41492,2.507528 1.10042,3.896591 1.53338,1.389062 4.25739,1.389062 z m 42.01464,-19.320596 -3.0848,0.79375 q -0.3608,-1.876137 -1.62358,-3.138921 -1.26278,-1.2808235 -4.05895,-1.2808235 -2.83224,0 -4.87074,1.3710225 -2.02045,1.352983 -2.36321,3.463636 -0.57727,3.355398 4.23935,4.600142 l 4.04091,1.028268 q 6.69275,1.731818 5.77273,7.360227 -0.37884,2.32713 -1.98438,4.149147 -1.60554,1.803978 -4.09503,2.832245 -2.47145,1.028267 -5.52017,1.028267 -4.07699,0 -6.42216,-1.840057 -2.34517,-1.840057 -2.50753,-5.303693 l 3.22912,-0.721591 q 0.30668,4.978977 6.04333,4.978977 3.21108,0 5.37585,-1.461222 2.18281,-1.461221 2.52557,-3.607954 0.59531,-3.409517 -3.77031,-4.473864 l -4.31151,-1.082386 q -6.83707,-1.749858 -5.88097,-7.432386 0.37884,-2.291051 1.91222,-4.0228694 1.53338,-1.7318182 3.87855,-2.7059659 2.34517,-0.9921875 5.1233,-0.9921875 3.82443,0 5.82684,1.7318182 2.00242,1.7137783 2.52557,4.7264206 z m 19.35671,-6.0794036 -0.45099,2.7961648 h -5.89901 l -2.94048,17.6789768 q -0.43295,2.615767 0.68551,3.571875 1.13651,0.938068 2.77813,0.938068 0.63139,0 1.08238,-0.0902 0.46904,-0.0902 0.82983,-0.162358 l 0.23452,2.904404 q -0.52315,0.180398 -1.24474,0.324716 -0.72159,0.162358 -1.73182,0.162358 -1.7679,0 -3.2652,-0.775711 -1.4973,-0.77571 -2.27301,-2.30909 -0.77571,-1.533381 -0.41492,-3.806392 l 3.04872,-18.4366478 h -4.1311 l 0.46903,-2.7961648 h 4.11307 L 185.26854,-1.8423254e-6 h 3.22911 L 187.39723,6.6386344 Z"
       id="text1"
       style="font-style:italic;font-weight:300;font-size:50.8px;font-family:Inter;-inkscape-font-specification:'Inter, Light Italic';fill:#ffffff;stroke-width:0.529;stroke-linecap:square"
       aria-label="contrast" />
  </g>
</svg>
